<?xml version="1.0" encoding="utf-8"?>
<!-- Generator: Adobe Illustrator 16.0.3, SVG Export Plug-In . SVG Version: 6.00 Build 0)  -->
<!DOCTYPE svg PUBLIC "-//W3C//DTD SVG 1.1//EN" "http://www.w3.org/Graphics/SVG/1.1/DTD/svg11.dtd">
<svg version="1.1" id="Capa_1" xmlns="http://www.w3.org/2000/svg" xmlns:xlink="http://www.w3.org/1999/xlink" x="0px" y="0px"
	 width="500.095px" height="500.108px" viewBox="0 0 500.095 500.108" enable-background="new 0 0 500.095 500.108"
	 xml:space="preserve">
<path display="none" fill-rule="evenodd" clip-rule="evenodd" fill="#FDFDFD" d="M500.19,4.095c0.006-3.426-0.674-4.097-4.096-4.095
	c-164,0.108-328,0.108-492,0C0.67-0.002-0.002,0.672,0,4.095c0.108,164,0.108,328,0,492c-0.002,3.424,0.672,4.097,4.095,4.095
	c164-0.108,328-0.108,492,0c3.424,0.002,4.102-0.671,4.096-4.095c-0.123-81.834-0.096-163.667-0.096-245.5
	C500.095,168.428,500.067,86.261,500.19,4.095z M474.095,45.095c6.448,0,6.448,10,0,10S467.646,45.095,474.095,45.095z
	 M448.095,47.095c6.448,0,6.448,10,0,10S441.646,47.095,448.095,47.095z M13.119,251.414c-8.935-10.585-5.693-34.293,6.304-41.171
	c17.156-9.834,24.692-25.78,29.64-43.658c1.298-4.69,1.478-9.549,1.259-14.381c-0.677-14.927,5.841-25.598,19.045-32.231
	c13.203-6.634,23.25-16.503,30.54-29.249c3.755-6.564,6.492-13.471,6.297-21.237c-0.077-3.078,0.817-5.93,2.478-8.502
	c6.37-9.865,15.561-15.207,27.101-16.583c2.668-0.318,5.223,0.566,7.744,1.543c12.17,4.715,22.067,2.42,29.289-8.463
	c6.673-10.055,22.841-15.169,35.197-11.466c4.765,1.428,8.549,3.954,9.78,8.984c1.251,5.113-1.306,8.997-4.832,12.373
	c-8.422,8.063-25.672,11.796-36.63,5.083c-9.182-5.625-20.69-3.172-26.852,6.322c-6.431,9.909-15.236,15.416-25.59,20.306
	c-18.063,8.532-30.707,22.565-33.68,42.905c-4.118,28.164,20.091,41.058,39.807,40.45c4.682-0.145,9.283-0.796,13.717-2.332
	c10.8-3.741,19.994-1.46,27.354,7.364c6.32,7.576,7.034,19.465,1.917,29.151c-5.225,9.892-16.106,15.812-26.814,14.591
	c-11.506-1.313-18.156-7.425-21.44-19.701c-4.568-17.073-14.173-29.52-32.438-32.505c-16.692-2.729-29.241,5.727-39.496,17.682
	c-9.912,11.556-13.908,25.503-14.002,40.614c-0.118,6.151,1.586,12.245,0.324,18.431c-1.402,6.87-3.96,13.091-9.739,17.421
	C23.388,257.658,17.806,256.967,13.119,251.414z M148.994,450.862c-13.659,0.205-22.739-4.755-27.415-16.683
	c-7.58-19.337-22.697-31.948-42.672-38.335c-3.685-1.178-7.581-1.848-11.319-1.453c-8.592,0.906-14.785-2.89-19.92-9.089
	c-6.188-7.471-9.803-15.825-7.586-25.76c1.664-7.456,6.823-10.949,14.375-9.457c10.236,2.021,16.584,8.894,20.184,18.179
	c5.138,13.254,12.911,24.26,24.859,32.178c8.213,5.443,17.289,8.321,27.001,9.387c0.964,0.105,2.053,0.082,2.94-0.258
	c10.88-4.17,20.267,0.004,29.188,5.534c6.711,4.159,8.8,10.934,8.665,17.002C167.447,444.827,161.545,450.674,148.994,450.862z
	 M483.081,343.101c-4.641,3.234-7.862,2.819-11.729-1.513c-4.969-5.567-8.439-5.65-13.706-0.273
	c-2.968,3.028-5.243,6.639-6.252,10.662c-2.375,9.469-8.642,15.248-16.702,20.032c-21.565,12.798-34.962,31.015-35.371,56.909
	c-0.244,15.437-23.794,33.363-39.221,24.274c-10.75-6.334-23.321-1.221-28.56,10.271c-1.5,3.291-3.571,5.993-6.571,7.963
	c-8.874,5.826-18.737,8.513-29.25,8.543c-6.599,0.019-8.544-2.316-9.819-8.722c-2.012-10.099,0.213-18.773,8.777-24.719
	c9.946-6.905,20.655-8.887,31.837-2.375c12.181,7.094,22.85,4.901,29.747-7.391c5.73-10.21,14.115-15.911,24.405-20.806
	c21.074-10.024,32.944-27.447,33.736-50.849c0.942-27.868-23.607-46.325-51.484-39.756c-26.364,6.212-46.028,31.921-44.802,58.657
	c0.106,2.313,0.56,4.619,0.968,6.907c2.076,11.659-2.342,21.516-12.385,27.53c-10.319,6.181-22.451,5.733-31.4-1.103
	c-3.711-2.835-6.321-6.497-7.47-10.939c-7.066-27.312-40.654-42.729-67.25-35.902c-12.88,3.306-26.927-4.12-32.209-16.695
	c-4.996-11.896-0.984-25.186,9.678-32.054c14.734-9.492,35.458-2.115,41.098,15.244c4.514,13.894,11.779,25.4,24.745,32.46
	c19.557,10.648,39.285,10.596,58.296-1.244c17.361-10.811,26.312-26.817,26.766-47.36c0.059-2.64-0.256-5.353-0.845-7.929
	c-1.503-6.573-1.874-13.146-0.764-19.798c-4.12-0.746-8.178,2.55-12.549-0.478c-2.671-1.851-4.224-3.432-3.704-6.672
	c0.527-3.291-1.126-4.885-4.211-5.546c-3.805-0.816-7.623-0.265-11.433-0.353c-2.036-0.047-2.431,1.341-2.43,3.007
	c0.002,2.164,0.007,4.328-0.019,6.491c-0.038,3.361,0.123,7.509-3.311,8.757c-3.889,1.415-8.178,1.191-12.512-0.48
	c-4.99-1.924-5.229-5.258-5.107-9.589c0.221-7.984,0.082-15.979,0.047-23.97c-0.008-1.908,0.544-4.307-2.684-4.19
	c-2.713,0.098-4.325,1.167-4.295,4.236c0.087,8.655,0.032,17.313,0.023,25.969c-0.008,8.082-6.729,11.887-14.039,8.092
	c-4.272-2.217-6.541-4.952-6.13-10.324c0.607-7.943,0.188-15.969,0.125-23.959c-0.012-1.513,0.669-3.639-1.874-3.893
	c-2.267-0.226-1.932,1.628-2.266,3.058c-0.731,3.128-2.76,4.591-6.05,4.818c-6.234,0.431-11.661-0.804-16.048-7.079
	c-1.443,7.236-0.821,13.721,0.036,20.491c1.219-4.11,3.672-5.548,7.728-5.862c3.652-0.284,7.341-1.002,10.832-0.01
	c2.482,0.705,3.623,3.022,3.603,5.924c-0.076,10.849-11.62,20.481-22.282,18.151c-10.694-2.337-19.254-7.214-21.093-19.38
	c-0.176-1.163-0.279-2.739-1.788-3.365c-5.184,9.138-12.881,13.796-23.385,15.746c-11.907,2.212-20.119,10.622-26.319,20.717
	c-7.997,13.02-9.977,26.979-5.593,41.704c1.543,5.185,2.457,10.423,1.06,15.735c-3.596,13.681-17.953,19.355-31.147,12.36
	c-7.546-4.001-12.557-10.106-15.356-18.219c-6.006-17.41-17.188-30.218-34.357-37.344c-5.768-2.395-11.85-3.273-18.066-1.617
	c-4.55,1.212-8.49-0.026-12.151-2.811c-10.402-7.911-14.082-25.328-7.785-37.13c4.704-8.814,14.056-10.503,21.781-4.099
	c5.999,4.974,8.249,11.868,10.361,18.928c4.606,15.394,14.418,26.282,28.798,33.279c18.494,8.997,42.502-0.652,52.965-17.68
	c8.634-14.052,10.884-29.005,6.951-45.036c-4.298-17.519,6.43-32.588,24.23-35.633c10.865-1.858,18.725-9.214,25.157-17.691
	c11.04-14.552,15.146-30.736,10.735-48.888c-3.588-14.763,2.722-25.964,17.04-31.07c6.1-2.175,12.274-4.103,18.059-7.101
	c19.019-9.856,28.838-32.115,22.632-50.788c-3.879-11.672,4.942-22.24,18.424-23.291c7.132-0.557,13.865,0.733,19.994,4.773
	c4.718,3.11,9.589,5.968,15.332,6.948c8.253,1.41,13.354-1.912,15.234-10.086c0.936-4.067,3.295-6.68,7.441-7.86
	c4.063-1.156,8.22-1.235,12.349-1.671c4.188-0.442,8.242-1.292,11.748-3.754c5.172-3.63,6.26-8.305,3.337-13.918
	c-1.397-2.686-3.432-4.887-5.438-7.115c-0.883-0.981-1.915-2.167-1.075-3.52c0.875-1.41,2.456-0.847,3.639-0.447
	c8.567,2.896,16.374,7.285,23.725,12.489c2.025,1.435,3.825,3.19,5.688,4.845c0.876,0.778,1.863,1.748,1.112,2.975
	c-0.585,0.955-1.817,0.552-2.765,0.414c-2.797-0.409-5.568-1.156-8.374-1.303c-8.867-0.461-13.75,4.702-13.096,13.498
	c0.475,6.384,3.24,11.931,6.862,16.902c13.271,18.216,30.053,30.921,53.414,32.829c0.973,0.079,1.96,0.335,2.878,0.677
	c9.842,3.668,19.92,17.727,20.328,28.307c0.356,9.24-5.409,13.678-14.168,10.566c-8.434-2.997-14.323-9.034-17.93-17.09
	c-4.641-10.368-11.015-19.388-19.783-26.594c-11.504-9.455-24.817-13.597-39.547-11.491c-20.902,2.986-32.893,21.606-28.357,43.21
	c0.443,2.11,0.925,4.237,1.661,6.258c6.385,17.504-7.247,33.985-27.043,31.246c-8.067-1.116-14.781-5.06-19.533-11.794
	c-10.392-14.729-3.727-33.005,13.779-37.156c12.462-2.956,23.189-8.103,29.905-19.628c3.728-6.398,5.398-13.173,4.146-20.569
	c-0.256-1.512-0.494-2.802-2.195-3.504c-9.518-3.929-18.506-3.355-22.504,7.827c-2.931,8.199-8.578,12.242-16.602,13.984
	c-13.439,2.916-24.332,9.727-31.824,21.427c-11.249,17.565-9.117,40.772,6.137,56.586c15.365,15.929,34.052,23.34,56.524,18.755
	c15.454-3.152,28.314,4.564,32.968,20.153c4.063,13.61,11.353,24.675,23.299,32.516c25.875,16.982,55.813,5.025,62.84-25.155
	c2.153-9.248,1.784-18.488-0.648-27.675c-1.722-6.504-2.812-13.085-0.247-19.627c3.751-9.571,12.892-11.932,20.283-4.787
	c9.223,8.914,12.994,19.975,10.361,32.736c-0.902,4.374-3.204,8.042-8.017,9.315c-7.982,2.113-13.065,7.618-16.866,14.564
	c-7.848,14.34-9.566,29.563-6.44,45.461c1.551,7.891,0.084,15.203-4.127,22.004c-4.489,7.249-10.874,11.524-19.507,10.383
	c-8.291-1.098-13.635-6.54-16.492-14.257c-1.554-4.196-2.436-8.644-4.019-12.827c-8.775-23.201-33.316-35.92-57.33-29.833
	c-16.338,4.141-29.611-3.401-34.818-19.869c-6.595-20.853-20.066-34.61-41.613-39.487c-39.903-9.03-76.621,27.823-67.358,67.384
	c1.619,0.187,2.3-0.885,3.046-2.078c5.904-9.437,18.364-10.699,27.618-8.168c3.331,0.91,5.944,1.176,9.348,0.468
	c11.648-2.423,23.524-0.855,35.305-1.09c9.249-0.183,18.504-0.068,27.756-0.063c7.808,0.005,10.835,3.998,8.611,11.613
	c-0.813,2.783-2.837,4.393-5.957,4.322c-2.495-0.057-4.994-0.001-7.491,0.041c-1.305,0.021-2.291,0.498-2.266,2.021
	s1.045,1.987,2.335,1.95c3.832-0.11,7.591,0.353,11.371,0.979c3.313,0.551,4.698-1.493,4.153-4.502
	c-1.036-5.725,1.465-8.012,6.96-8.264c10.106-0.462,12.578-1.052,13.015,9.454c0.06,1.439,0.452,3.013,1.949,3.078
	c6.192,0.271,7.19,4.28,7.082,9.256c-0.02,0.887,0.395,1.591,1.144,2.083c17.744-7.327,32.109-0.115,36.979,18.6
	c4.436,17.047,14.166,29.217,31.74,33.769c6.691,1.733,13.437,1.618,19.941-1.64c7.58-3.798,12.537-2.867,18.508,2.892
	c7.457,7.191,13.752,6.214,18.715-2.915c1.755-3.229,2.856-6.71,4.016-10.185c1.818-5.45,4.497-10.394,9.473-13.679
	c4.812-3.178,8.885-2.105,11.541,2.973C497.109,315.539,491.902,336.95,483.081,343.101z"/>
<path fill-rule="evenodd" clip-rule="evenodd" fill="#FFFFFF" d="M195.914,276.973c-5.184,9.138-12.881,13.796-23.385,15.746
	c-11.907,2.212-20.119,10.622-26.319,20.717c-7.997,13.02-9.977,26.979-5.593,41.704c1.543,5.185,2.457,10.423,1.06,15.735
	c-3.596,13.681-17.953,19.355-31.147,12.36c-7.546-4.001-12.557-10.106-15.356-18.219c-6.006-17.41-17.188-30.218-34.357-37.344
	c-5.768-2.395-11.85-3.273-18.066-1.617c-4.55,1.212-8.49-0.026-12.151-2.811c-10.402-7.911-14.082-25.328-7.785-37.13
	c4.704-8.814,14.056-10.503,21.781-4.099c5.999,4.974,8.249,11.868,10.361,18.928c4.606,15.394,14.418,26.282,28.798,33.279
	c18.494,8.997,42.502-0.652,52.965-17.68c8.634-14.052,10.884-29.005,6.951-45.036c-4.298-17.519,6.43-32.588,24.23-35.633
	c10.865-1.858,18.725-9.214,25.157-17.691c11.04-14.552,15.146-30.736,10.735-48.888c-3.588-14.763,2.722-25.964,17.04-31.07
	c6.1-2.175,12.274-4.103,18.059-7.101c19.019-9.856,28.838-32.115,22.632-50.788c-3.879-11.672,4.942-22.24,18.424-23.291
	c7.132-0.557,13.865,0.733,19.994,4.773c4.718,3.11,9.589,5.968,15.332,6.948c8.253,1.41,13.354-1.912,15.234-10.086
	c0.936-4.067,3.295-6.68,7.441-7.86c4.063-1.156,8.22-1.235,12.349-1.671c4.188-0.442,8.242-1.292,11.748-3.754
	c5.172-3.63,6.26-8.305,3.337-13.918c-1.397-2.686-3.432-4.887-5.438-7.115c-0.883-0.981-1.915-2.167-1.075-3.52
	c0.875-1.41,2.456-0.847,3.639-0.447c8.567,2.896,16.374,7.285,23.725,12.489c2.025,1.435,3.825,3.19,5.688,4.845
	c0.876,0.778,1.863,1.748,1.112,2.975c-0.585,0.955-1.817,0.552-2.765,0.414c-2.797-0.409-5.568-1.156-8.374-1.303
	c-8.867-0.461-13.75,4.702-13.096,13.498c0.475,6.384,3.24,11.931,6.862,16.902c13.271,18.216,30.053,30.921,53.414,32.829
	c0.973,0.079,1.96,0.335,2.878,0.677c9.842,3.668,19.92,17.727,20.328,28.307c0.356,9.24-5.409,13.678-14.168,10.566
	c-8.434-2.997-14.323-9.034-17.93-17.09c-4.641-10.368-11.015-19.388-19.783-26.594c-11.504-9.455-24.817-13.597-39.547-11.491
	c-20.902,2.986-32.893,21.606-28.357,43.21c0.443,2.11,0.925,4.237,1.661,6.258c6.385,17.504-7.247,33.985-27.043,31.246
	c-8.067-1.116-14.781-5.06-19.533-11.794c-10.392-14.729-3.727-33.005,13.779-37.156c12.462-2.956,23.189-8.103,29.905-19.628
	c3.728-6.398,5.398-13.173,4.146-20.569c-0.256-1.512-0.494-2.802-2.195-3.504c-9.518-3.929-18.506-3.355-22.504,7.827
	c-2.931,8.199-8.578,12.242-16.602,13.984c-13.439,2.916-24.332,9.727-31.824,21.427c-11.249,17.565-9.117,40.772,6.137,56.586
	c15.365,15.929,34.052,23.34,56.524,18.755c15.454-3.152,28.314,4.564,32.968,20.153c4.063,13.61,11.353,24.675,23.299,32.516
	c25.875,16.982,55.813,5.025,62.84-25.155c2.153-9.248,1.784-18.488-0.648-27.675c-1.722-6.504-2.812-13.085-0.247-19.627
	c3.751-9.571,12.892-11.932,20.283-4.787c9.223,8.914,12.994,19.975,10.361,32.736c-0.902,4.374-3.204,8.042-8.017,9.315
	c-7.982,2.113-13.065,7.618-16.866,14.564c-7.848,14.34-9.566,29.563-6.44,45.461c1.551,7.891,0.084,15.203-4.127,22.004
	c-4.489,7.249-10.874,11.524-19.507,10.383c-8.291-1.098-13.635-6.54-16.492-14.257c-1.554-4.196-2.436-8.644-4.019-12.827
	c-8.775-23.201-33.316-35.92-57.33-29.833c-16.338,4.141-29.611-3.401-34.818-19.869c-6.595-20.853-20.066-34.61-41.613-39.487
	c-39.903-9.03-76.621,27.823-67.358,67.384C197.805,262.426,197.768,269.753,195.914,276.973z"/>
<path fill-rule="evenodd" clip-rule="evenodd" fill="#FFFFFF" d="M341.195,276.163c17.744-7.327,32.109-0.115,36.979,18.6
	c4.436,17.047,14.166,29.217,31.74,33.769c6.691,1.733,13.437,1.618,19.941-1.64c7.58-3.798,12.537-2.867,18.508,2.892
	c7.457,7.191,13.752,6.214,18.715-2.915c1.755-3.229,2.856-6.71,4.016-10.185c1.818-5.45,4.497-10.394,9.473-13.679
	c4.812-3.178,8.885-2.105,11.541,2.973c5.001,9.562-0.206,30.973-9.027,37.123c-4.641,3.234-7.862,2.819-11.729-1.513
	c-4.969-5.567-8.439-5.65-13.706-0.273c-2.968,3.028-5.243,6.639-6.252,10.662c-2.375,9.469-8.642,15.248-16.702,20.032
	c-21.565,12.798-34.962,31.015-35.371,56.909c-0.244,15.437-23.794,33.363-39.221,24.274c-10.75-6.334-23.321-1.221-28.56,10.271
	c-1.5,3.291-3.571,5.993-6.571,7.963c-8.874,5.826-18.737,8.513-29.25,8.543c-6.599,0.019-8.544-2.316-9.819-8.722
	c-2.012-10.099,0.213-18.773,8.777-24.719c9.946-6.905,20.655-8.887,31.837-2.375c12.181,7.094,22.85,4.901,29.747-7.391
	c5.73-10.21,14.115-15.911,24.405-20.806c21.074-10.024,32.944-27.447,33.736-50.849c0.942-27.868-23.607-46.325-51.484-39.756
	c-26.364,6.212-46.028,31.921-44.802,58.657c0.106,2.313,0.56,4.619,0.968,6.907c2.076,11.659-2.342,21.516-12.385,27.53
	c-10.319,6.181-22.451,5.733-31.4-1.103c-3.711-2.835-6.321-6.497-7.47-10.939c-7.066-27.312-40.654-42.729-67.25-35.902
	c-12.88,3.306-26.927-4.12-32.209-16.695c-4.996-11.896-0.984-25.186,9.678-32.054c14.734-9.492,35.458-2.115,41.098,15.244
	c4.514,13.894,11.779,25.4,24.745,32.46c19.557,10.648,39.285,10.596,58.296-1.244c17.361-10.811,26.312-26.817,26.766-47.36
	c0.059-2.64-0.256-5.353-0.845-7.929c-1.503-6.573-1.874-13.146-0.764-19.798C330.879,286.59,334.566,280.176,341.195,276.163z"/>
<path fill-rule="evenodd" clip-rule="evenodd" fill="#FFFFFF" d="M38.814,217.304c-0.118,6.151,1.586,12.245,0.324,18.431
	c-1.402,6.87-3.96,13.091-9.739,17.421c-6.011,4.503-11.593,3.812-16.28-1.741c-8.935-10.585-5.693-34.293,6.304-41.171
	c17.156-9.834,24.692-25.78,29.64-43.658c1.298-4.69,1.478-9.549,1.259-14.381c-0.677-14.927,5.841-25.598,19.045-32.231
	c13.203-6.634,23.25-16.503,30.54-29.249c3.755-6.564,6.492-13.471,6.297-21.237c-0.077-3.078,0.817-5.93,2.478-8.502
	c6.37-9.865,15.561-15.207,27.101-16.583c2.668-0.318,5.223,0.566,7.744,1.543c12.17,4.715,22.067,2.42,29.289-8.463
	c6.673-10.055,22.841-15.169,35.197-11.466c4.765,1.428,8.549,3.954,9.78,8.984c1.251,5.113-1.306,8.997-4.832,12.373
	c-8.422,8.063-25.672,11.796-36.63,5.083c-9.182-5.625-20.69-3.172-26.852,6.322c-6.431,9.909-15.236,15.416-25.59,20.306
	c-18.063,8.532-30.707,22.565-33.68,42.905c-4.118,28.164,20.091,41.058,39.807,40.45c4.682-0.145,9.283-0.796,13.717-2.332
	c10.8-3.741,19.994-1.46,27.354,7.364c6.32,7.576,7.034,19.465,1.917,29.151c-5.225,9.892-16.106,15.812-26.814,14.591
	c-11.506-1.313-18.156-7.425-21.44-19.701c-4.568-17.073-14.173-29.52-32.438-32.505c-16.692-2.729-29.241,5.727-39.496,17.682
	C42.904,188.245,38.909,202.192,38.814,217.304z"/>
<path fill-rule="evenodd" clip-rule="evenodd" fill="#FFFFFF" d="M167.294,432.107c0.153,12.72-5.749,18.566-18.3,18.755
	c-13.659,0.205-22.739-4.755-27.415-16.683c-7.58-19.337-22.697-31.948-42.672-38.335c-3.685-1.178-7.581-1.848-11.319-1.453
	c-8.592,0.906-14.785-2.89-19.92-9.089c-6.188-7.471-9.803-15.825-7.586-25.76c1.664-7.456,6.823-10.949,14.375-9.457
	c10.236,2.021,16.584,8.894,20.184,18.179c5.138,13.254,12.911,24.26,24.859,32.178c8.213,5.443,17.289,8.321,27.001,9.387
	c0.964,0.105,2.053,0.082,2.94-0.258c10.88-4.17,20.267,0.004,29.188,5.534C165.34,419.265,167.429,426.039,167.294,432.107z"/>
<path fill-rule="evenodd" clip-rule="evenodd" fill="#D1D1D1" d="M374.533,257.228c-10.315,7.481-16.057,19.446-21.556,31.641
	c-6.415-1.392-12.73,4.756-19.533-0.891c-4.158-3.454-6.573-6.403-5.765-12.444c0.819-6.14-1.754-9.111-6.555-10.345
	c-5.921-1.521-11.864-0.492-17.792-0.658c-3.17-0.087-3.786,2.501-3.783,5.611c0.004,4.035,0.011,8.072-0.027,12.104
	c-0.061,6.27,0.189,14.005-5.152,16.336c-6.055,2.636-12.729,2.221-19.475-0.896c-7.766-3.59-8.139-9.811-7.949-17.888
	c0.344-14.893,0.128-29.803,0.073-44.706c-0.013-3.562,0.846-8.034-4.175-7.817c-4.225,0.181-6.734,2.177-6.688,7.901
	c0.135,16.144,0.051,32.292,0.039,48.436c-0.013,15.076-10.474,22.17-21.851,15.095c-6.652-4.137-10.182-9.237-9.543-19.259
	c0.948-14.816,0.294-29.786,0.196-44.688c-0.019-2.82,1.044-6.786-2.915-7.259c-3.53-0.422-3.008,3.035-3.528,5.703
	c-1.138,5.832-4.296,8.563-9.416,8.987c-9.702,0.801-18.149-1.499-24.977-13.207c-2.247,13.5-1.279,25.591,0.055,38.221
	c1.897-7.666,5.716-10.347,12.027-10.934c5.684-0.531,11.425-1.869,16.857-0.018c3.864,1.313,5.64,5.639,5.607,11.051
	c-0.119,20.232-18.085,38.199-34.679,33.854c-16.643-4.36-29.966-13.455-32.829-36.146c-0.273-2.169-0.434-5.11-2.782-6.277
	c2.886-13.465,2.943-27.133,2.028-40.869c2.519,0.348,3.58-1.65,4.74-3.877c9.189-17.601,28.582-19.956,42.984-15.234
	c5.184,1.698,9.251,2.193,14.55,0.873c18.126-4.52,36.611-1.595,54.946-2.033c14.396-0.341,28.8-0.127,43.198-0.117
	c12.153,0.009,16.864,7.457,13.403,21.661c-1.265,5.191-4.415,8.193-9.271,8.063c-3.883-0.107-7.772-0.002-11.659,0.076
	c-2.03,0.04-3.563,0.928-3.528,3.769c0.041,2.839,1.628,3.708,3.636,3.637c5.964-0.205,11.813,0.659,17.697,1.828
	c5.157,1.026,7.313-2.785,6.465-8.397c-1.612-10.678,2.279-14.945,10.833-15.414c15.727-0.862,19.576-1.962,20.255,17.634
	c0.092,2.685,0.706,5.62,3.034,5.741c9.639,0.505,11.191,7.985,11.023,17.265C372.723,254.993,373.368,256.306,374.533,257.228z
	 M201.599,206.764c-0.239-0.315-0.476-0.629-0.715-0.944c0.028,0.209-0.008,0.513,0.095,0.61c0.176,0.164,0.436,0.199,0.661,0.288
	c0.603,4.27,2.615,7.423,6.018,11.444C207.206,211.784,206.838,207.316,201.599,206.764z M168.05,247.808
	c0.454-7.253,0.577-14.417,1.432-21.455c0.858-7.071,4.515-10.706,10.775-10.652c6.548,0.056,8.923,4.433,9.987,11.456
	c1.382,9.125,7.59,4.045,11.356,4.229c5.017,0.245,2.322-4.945,1.86-7.633c-2.341-13.624-9.305-20.976-20.765-22.448
	c-11.13-1.427-21.488,4.752-25.045,17.113c-5.455,18.956-5.464,38.554,0.121,57.503c3.45,11.709,12.852,17.436,23.767,16.562
	c11.348-0.906,19.117-7.859,21.556-20.169c0.589-2.969,4.145-8.786-1.436-9.238c-3.907-0.317-10.883-5.236-11.938,5.553
	c-0.66,6.739-4.323,9.329-9.768,9.338c-5.76,0.002-9.605-2.972-10.447-9.864C168.68,261.37,168.505,254.526,168.05,247.808z
	 M270.617,246.518c0,12.09,0.341,24.198-0.135,36.258c-0.266,6.812,1.868,7.846,7.007,8.149c6.415,0.386,8.139-2.463,7.374-9.39
	c-0.305-2.741-0.049-5.569-0.049-8.357c0-18.231,0.015-18.768,15.319-18.078c7.138,0.321,8.232-3.114,7.582-10.155
	c-0.821-8.873-6.396-4.235-9.479-4.37c-13.826-0.587-13.555-0.255-13.566-16.069c-0.002-6.067,1.79-7.425,6.333-7.042
	c4.891,0.414,9.848-0.275,14.732,0.188c5.517,0.524,4.776-3.703,4.797-7.741c0.021-3.838,0.479-7.26-4.565-7.028
	c-10.073,0.462-20.174,0.358-30.253,0.028c-4.195-0.137-5.265,1.667-5.175,6.414C270.771,221.718,270.617,234.121,270.617,246.518z
	 M228.927,254.539c0,9.627,0.385,19.283-0.13,28.874c-0.362,6.688,2.068,7.72,6.709,7.334c4.064-0.337,8.073,1.199,7.79-7.114
	c-0.569-16.744-0.17-33.535-0.17-50.306c0-15.08,0-15.504,12.768-15.577c5.76-0.035,5.078-3.751,5.378-8.221
	c0.369-5.469-1.398-6.725-5.681-6.621c-12.695,0.309-25.403,0.411-38.092-0.037c-5.194-0.185-6.238,1.86-6.482,7.798
	c-0.389,9.456,4.955,7.261,8.721,6.713c7.519-1.097,10.09,1.953,9.34,11.084C228.371,237.081,228.927,245.839,228.927,254.539z
	 M316.544,249.262c-1.438,6.729,1.032,9.201,6.412,8.111c6.509-1.32,8.905,1.968,7.942,9.593c-0.308,2.422,0.168,4.978-0.092,7.415
	c-0.626,5.941,1.1,8.103,6.346,7.95c4.775-0.144,7.361-1.177,6.559-7.613c-0.301-2.425,0.244-5.006-0.102-7.412
	c-1.202-8.363,1.72-11.419,8.441-9.908c5.802,1.303,5.883-2.844,6.047-8.069c0.177-5.606-1.114-8.266-5.978-7.127
	c-7.498,1.756-9.458-2.64-8.494-10.631c0.253-2.124-0.173-4.363,0.074-6.49c0.705-6.134-2.416-6.22-6.117-6.128
	c-3.732,0.095-7.541-0.575-6.774,6.359c0.269,2.432-0.238,5.002,0.092,7.412c1.061,7.712-1.376,10.75-7.89,9.526
	C318.746,241.451,314.999,242.051,316.544,249.262z M258.867,222.132c-1.291-0.083-2.62,0.044-3.864-0.288
	c-7.054-1.872-8.946,1.709-8.477,9.845c0.583,10.171,0.138,20.434,0.14,30.653c0.002,8.981-0.013,17.967,0.021,26.948
	c0.008,2.093-0.36,4.832,2.196,5.003c2.375,0.161,3.777-1.815,4.047-4.61c0.206-2.145,0.196-4.325,0.196-6.489
	c0.019-16.417,0.057-32.836-0.007-49.251C253.101,228.566,252.767,223.168,258.867,222.132z M182.975,222.132
	c-6.153-2.55-9.529,0.491-10.276,7.735c-1.2,11.646-1.395,23.35,0.197,34.977c0.438,3.207,0.869,7.858,4.653,7.011
	c4.171-0.932,1.956-5.417,1.729-8.411C178.209,249.39,176.814,235.331,182.975,222.132z M301.124,222.063
	c-12.923-0.244-13.856,0.552-12.623,10.189c0.304,2.382,0.603,4.232,3.069,4.197c2.189-0.031,3.563-1.179,3.374-3.867
	c-0.67-9.488,4.529-9.558,10.095-9.332c3.1,0.125,6.22,0.114,9.315-0.14c3.449-0.284,5.974-2.455,6.559-6.658
	c0.637-4.596,1.086-9.429-2.322-12.965c-0.858-0.893-2.441-1.493-3.507-1.217c-1.465,0.379-1.297,2.407-1.261,3.91
	C314.227,222.309,314.234,222.306,301.124,222.063z M187.822,295.725c18.612,1.425,27.053-16.493,26.401-28.836
	c-0.154-2.915-0.297-5.935-3.577-5.794c-2.938,0.13-2.674,3.116-2.883,5.531C206.552,280.608,200.292,289.915,187.822,295.725z
	 M288.524,275.487c0,4.022-0.085,8.048,0.036,12.061c0.06,1.974-0.507,4.923,2.179,4.892c2.092-0.021,3.011-2.308,3.051-4.605
	c0.157-8.345,0.184-16.694,0.245-25.045c0.018-2.129-0.739-3.563-2.637-3.678c-2.582-0.161-2.84,2.011-2.854,4.313
	C288.521,267.445,288.539,271.466,288.524,275.487z M347.126,228.427c2.491,2.238-2.421,8.653,3.429,8.865
	c4.452,0.159,3.664-4.946,3.521-8.441c-0.161-3.981,1.394-10.276-3.551-10.406C345.329,218.307,348.821,224.717,347.126,228.427z
	 M347.235,274.208c1.718,3.14-1.675,9.636,2.331,9.979c5.062,0.435,2.964-6.259,3.547-10.071c0.045-0.298,0.108-0.688-0.002-0.908
	c-1.752-3.331,4.579-10.604-2.452-10.47C345.019,262.846,348.949,270.183,347.235,274.208z M207.503,229.313
	c1.864,1.771-1.861,7.397,3.378,7.063c2.828-0.181,3.722-3.372,3.185-6.282c-0.561-3.036,0.057-7.753-3.708-8.063
	C205.691,221.651,208.593,226.48,207.503,229.313z M361.497,251.427c1.378,2.772-1.989,8.514,2.703,8.711
	c3.408,0.14,2.976-5.021,2.914-8.325c-0.066-3.507,0.88-8.988-3.161-8.942C360.038,242.914,362.596,248.376,361.497,251.427z
	 M265.734,218.779c-0.394,0.436-0.95,0.759-1.066,1.238c-0.305,1.225,0.307,1.745,1.222,1.356c0.331-0.141,0.613-0.956,0.622-1.472
	C266.519,219.54,266.023,219.166,265.734,218.779z"/>
<path fill-rule="evenodd" clip-rule="evenodd" fill="#090909" d="M168.05,247.808c0.455,6.719,0.63,13.563,1.453,20.294
	c0.842,6.893,4.688,9.866,10.447,9.864c5.444-0.009,9.107-2.599,9.768-9.338c1.055-10.789,8.031-5.87,11.938-5.553
	c5.581,0.452,2.025,6.27,1.436,9.238c-2.439,12.31-10.208,19.263-21.556,20.169c-10.915,0.874-20.317-4.853-23.767-16.562
	c-5.585-18.949-5.575-38.547-0.121-57.503c3.557-12.361,13.915-18.541,25.045-17.113c11.46,1.473,18.424,8.824,20.765,22.448
	c0.462,2.688,3.157,7.878-1.86,7.633c-3.766-0.185-9.974,4.896-11.356-4.229c-1.063-7.023-3.438-11.4-9.987-11.456
	c-6.261-0.053-9.917,3.581-10.775,10.652C168.627,233.39,168.504,240.555,168.05,247.808z"/>
<path fill-rule="evenodd" clip-rule="evenodd" fill="#090909" d="M270.617,246.518c0-12.397,0.154-24.8-0.077-37.193
	c-0.09-4.747,0.979-6.551,5.175-6.414c10.079,0.33,20.18,0.434,30.253-0.028c5.045-0.232,4.586,3.19,4.565,7.028
	c-0.021,4.039,0.72,8.266-4.797,7.741c-4.885-0.463-9.842,0.226-14.732-0.188c-4.543-0.384-6.335,0.975-6.333,7.042
	c0.012,15.814-0.26,15.482,13.566,16.069c3.082,0.135,8.657-4.503,9.479,4.37c0.65,7.041-0.444,10.477-7.582,10.155
	c-15.305-0.689-15.319-0.153-15.319,18.078c0,2.788-0.256,5.616,0.049,8.357c0.765,6.927-0.959,9.775-7.374,9.39
	c-5.139-0.304-7.272-1.338-7.007-8.149C270.958,270.716,270.617,258.608,270.617,246.518z"/>
<path fill-rule="evenodd" clip-rule="evenodd" fill="#090909" d="M228.927,254.539c0-8.7-0.556-17.458,0.151-26.073
	c0.75-9.131-1.821-12.181-9.34-11.084c-3.766,0.548-9.11,2.743-8.721-6.713c0.244-5.938,1.288-7.982,6.482-7.798
	c12.689,0.448,25.396,0.346,38.092,0.037c4.282-0.104,6.05,1.152,5.681,6.621c-0.3,4.47,0.382,8.186-5.378,8.221
	c-12.768,0.073-12.768,0.497-12.768,15.577c0,16.771-0.398,33.562,0.17,50.306c0.283,8.313-3.726,6.777-7.79,7.114
	c-4.642,0.386-7.072-0.646-6.709-7.334C229.312,273.822,228.927,264.166,228.927,254.539z"/>
<path fill-rule="evenodd" clip-rule="evenodd" fill="#090909" d="M316.544,249.262c-1.545-7.211,2.202-7.811,6.467-7.012
	c6.514,1.223,8.95-1.814,7.89-9.526c-0.33-2.41,0.177-4.979-0.092-7.412c-0.767-6.934,3.042-6.264,6.774-6.359
	c3.701-0.092,6.822-0.006,6.117,6.128c-0.247,2.127,0.179,4.366-0.074,6.49c-0.964,7.991,0.996,12.387,8.494,10.631
	c4.863-1.139,6.154,1.521,5.978,7.127c-0.164,5.225-0.245,9.372-6.047,8.069c-6.722-1.511-9.644,1.545-8.441,9.908
	c0.346,2.406-0.199,4.987,0.102,7.412c0.803,6.437-1.783,7.47-6.559,7.613c-5.246,0.152-6.972-2.009-6.346-7.95
	c0.26-2.438-0.216-4.993,0.092-7.415c0.963-7.625-1.434-10.913-7.942-9.593C317.576,258.463,315.106,255.991,316.544,249.262z"/>
<path fill-rule="evenodd" clip-rule="evenodd" fill="#7A7A7A" d="M258.867,222.132c-6.101,1.037-5.767,6.434-5.747,11.811
	c0.063,16.415,0.025,32.834,0.007,49.251c0,2.164,0.01,4.345-0.196,6.489c-0.271,2.795-1.672,4.771-4.047,4.61
	c-2.556-0.171-2.188-2.91-2.196-5.003c-0.034-8.981-0.02-17.967-0.021-26.948c-0.002-10.22,0.443-20.482-0.14-30.653
	c-0.469-8.136,1.423-11.717,8.477-9.845C256.247,222.176,257.576,222.049,258.867,222.132z"/>
<path fill-rule="evenodd" clip-rule="evenodd" fill="#7A7A7A" d="M182.975,222.132c-6.16,13.199-4.765,27.258-3.697,41.312
	c0.228,2.994,2.442,7.479-1.729,8.411c-3.784,0.848-4.214-3.804-4.653-7.011c-1.592-11.627-1.397-23.332-0.197-34.977
	C173.445,222.623,176.821,219.582,182.975,222.132z"/>
<path fill-rule="evenodd" clip-rule="evenodd" fill="#7A7A7A" d="M301.124,222.063c13.11,0.243,13.103,0.245,12.699-15.883
	c-0.036-1.503-0.204-3.531,1.261-3.91c1.065-0.276,2.648,0.324,3.507,1.217c3.408,3.537,2.959,8.37,2.322,12.965
	c-0.585,4.204-3.109,6.374-6.559,6.658c-3.096,0.254-6.216,0.265-9.315,0.14c-5.565-0.226-10.765-0.156-10.095,9.332
	c0.189,2.688-1.185,3.836-3.374,3.867c-2.467,0.035-2.766-1.815-3.069-4.197C287.268,222.615,288.201,221.82,301.124,222.063z"/>
<path fill-rule="evenodd" clip-rule="evenodd" fill="#7A7A7A" d="M187.822,295.725c12.471-5.81,18.73-15.116,19.941-29.099
	c0.209-2.415-0.055-5.401,2.883-5.531c3.28-0.141,3.423,2.879,3.577,5.794C214.875,279.231,206.434,297.149,187.822,295.725z"/>
<path fill-rule="evenodd" clip-rule="evenodd" fill="#7A7A7A" d="M288.53,275.487c0.009-4.021-0.01-8.042,0.014-12.063
	c0.015-2.303,0.272-4.475,2.854-4.313c1.897,0.114,2.654,1.549,2.637,3.678c-0.062,8.351-0.088,16.7-0.245,25.045
	c-0.04,2.298-0.959,4.585-3.051,4.605c-2.686,0.031-2.119-2.918-2.179-4.892C288.439,283.535,288.524,279.51,288.53,275.487z"/>
<path fill-rule="evenodd" clip-rule="evenodd" fill="#7A7A7A" d="M347.126,228.427c1.695-3.71-1.797-10.121,3.398-9.983
	c4.944,0.13,3.39,6.425,3.551,10.406c0.144,3.496,0.932,8.6-3.521,8.441C344.705,237.081,349.617,230.665,347.126,228.427z"/>
<path fill-rule="evenodd" clip-rule="evenodd" fill="#7A7A7A" d="M347.235,274.208c1.714-4.025-2.217-11.362,3.424-11.471
	c7.031-0.135,0.7,7.139,2.452,10.47c0.11,0.22,0.047,0.61,0.002,0.908c-0.583,3.813,1.515,10.506-3.547,10.071
	C345.561,283.844,348.953,277.348,347.235,274.208z"/>
<path fill-rule="evenodd" clip-rule="evenodd" fill="#7A7A7A" d="M207.503,229.313c1.09-2.833-1.812-7.662,2.854-7.282
	c3.766,0.31,3.148,5.026,3.708,8.063c0.537,2.911-0.357,6.101-3.185,6.282C205.642,236.71,209.367,231.084,207.503,229.313z"/>
<path fill-rule="evenodd" clip-rule="evenodd" fill="#7A7A7A" d="M361.497,251.427c1.099-3.05-1.459-8.513,2.456-8.556
	c4.041-0.046,3.095,5.435,3.161,8.942c0.062,3.304,0.494,8.465-2.914,8.325C359.508,259.94,362.875,254.199,361.497,251.427z"/>
<path fill-rule="evenodd" clip-rule="evenodd" fill="#7A7A7A" d="M230.082,249.109c3.367,0.296,3.603,2.691,3.893,6.11
	c-2.187-2.156-3.479-3.847-3.867-6.136L230.082,249.109z"/>
<path fill-rule="evenodd" clip-rule="evenodd" fill="#7A7A7A" d="M271.29,255.551c0.186,0.208,0.504,0.408,0.5,0.602
	c-0.005,0.276-0.188,0.714-0.399,0.789c-0.588,0.208-0.981-0.07-0.786-0.727C270.681,255.958,271.038,255.784,271.29,255.551z"/>
<path fill-rule="evenodd" clip-rule="evenodd" fill="#7A7A7A" d="M230.108,249.084c-0.145-0.048-0.312-0.066-0.424-0.154
	c-0.066-0.052-0.043-0.215-0.061-0.327c0.153,0.169,0.306,0.338,0.459,0.507L230.108,249.084z"/>
</svg>
