<!DOCTYPE svg PUBLIC "-//W3C//DTD SVG 20010904//EN" "http://www.w3.org/TR/2001/REC-SVG-20010904/DTD/svg10.dtd">
<svg version="1.0" xmlns="http://www.w3.org/2000/svg" width="500px" height="500px" viewBox="0 0 5000 5000" preserveAspectRatio="xMidYMid meet">
<g id="layer101" fill="#1e1e1e" stroke="none">
 <path d="M2899 4786 c-32 -18 -35 -26 -44 -97 -17 -137 69 -248 215 -279 73 -16 115 -8 208 37 61 30 79 35 122 31 63 -6 119 -43 156 -103 76 -121 97 -141 221 -201 99 -48 129 -69 188 -128 77 -77 145 -194 165 -282 26 -113 7 -249 -47 -341 -83 -143 -278 -214 -458 -168 -202 52 -370 219 -430 429 -14 48 -16 78 -10 150 14 160 11 187 -21 246 -36 65 -98 113 -178 135 -72 21 -132 14 -200 -23 -59 -32 -90 -71 -116 -147 -53 -155 -161 -256 -347 -327 -47 -18 -79 -22 -168 -22 -60 0 -142 3 -181 8 -85 10 -127 -1 -197 -52 -159 -115 -148 -356 22 -444 144 -75 333 -2 387 151 61 173 143 277 269 342 77 40 187 69 263 69 213 0 416 -127 511 -320 57 -117 70 -210 49 -340 -11 -66 -14 -109 -8 -140 12 -62 12 -62 -10 -55 -19 6 -20 2 -20 -59 0 -63 1 -66 24 -66 22 0 23 3 18 50 -3 33 -1 50 7 50 6 0 11 -4 11 -10 0 -5 14 -25 30 -43 34 -39 36 -47 15 -47 -12 0 -15 -13 -15 -56 0 -47 3 -55 18 -52 13 2 18 15 20 55 l3 51 47 -26 c38 -22 60 -27 117 -27 128 0 203 67 251 224 45 149 110 233 226 293 58 30 70 32 158 32 72 0 108 -5 148 -21 69 -26 106 -19 168 36 37 32 55 41 84 41 47 0 92 -43 116 -109 52 -145 110 -221 170 -221 29 0 71 51 80 96 21 111 -44 292 -117 330 -43 22 -67 17 -106 -21 -45 -44 -65 -50 -103 -30 -37 19 -72 70 -104 152 -34 88 -64 122 -156 177 -210 125 -338 317 -358 539 -7 74 -15 105 -35 139 -80 136 -242 199 -357 138 -97 -51 -214 -17 -269 78 -47 83 -100 127 -189 156 -100 34 -206 43 -243 22z"/>
 <path d="M1415 4504 c-11 -3 -37 -10 -57 -15 -58 -15 -97 -55 -138 -144 -113 -244 -340 -405 -572 -405 -69 0 -106 -19 -166 -84 -104 -115 -119 -273 -31 -339 33 -24 95 -25 142 -2 74 35 105 72 168 203 55 112 71 136 138 202 112 110 248 175 360 171 204 -7 192 -9 273 31 101 51 129 90 136 193 6 94 -7 128 -63 161 -43 25 -144 40 -190 28z"/>
 <path d="M1137 3846 c-86 -31 -145 -97 -192 -214 -64 -157 -165 -271 -298 -337 -76 -37 -115 -43 -255 -36 -69 4 -136 -54 -173 -149 -41 -107 -15 -252 55 -304 38 -29 114 -29 153 0 49 36 90 100 113 175 44 147 110 241 218 313 128 85 224 102 346 62 43 -14 97 -36 120 -50 91 -53 173 -170 211 -300 19 -67 23 -198 6 -266 -20 -86 -14 -161 20 -229 42 -84 109 -132 211 -151 150 -29 327 -223 369 -405 14 -62 14 -198 0 -245 -14 -45 -14 -124 0 -174 6 -23 29 -57 57 -85 39 -39 64 -53 142 -80 129 -44 206 -89 268 -155 105 -111 144 -256 109 -404 -24 -99 1 -162 82 -210 41 -24 56 -27 136 -27 l90 0 94 55 c87 50 100 55 158 55 55 0 66 -3 90 -27 15 -16 32 -47 38 -70 14 -57 46 -78 141 -90 122 -16 155 -27 191 -63 50 -50 44 -92 -26 -179 -58 -72 -19 -74 116 -6 110 55 196 117 201 143 3 16 -3 17 -72 11 -123 -11 -166 20 -166 119 0 196 312 476 560 502 47 5 78 16 112 37 124 78 201 276 133 343 -18 18 -35 25 -65 25 -95 0 -165 -59 -240 -201 -62 -117 -152 -221 -241 -279 -173 -112 -414 -104 -536 18 -88 87 -115 235 -74 396 26 101 21 149 -23 215 -44 65 -117 101 -207 101 -56 0 -77 -5 -130 -33 -70 -36 -122 -94 -139 -155 -17 -63 -12 -135 13 -182 34 -64 80 -96 182 -126 116 -33 157 -55 215 -114 77 -77 118 -180 105 -266 -7 -47 -29 -62 -105 -71 -65 -7 -105 23 -150 112 -39 79 -75 105 -178 132 -98 26 -163 63 -232 132 -150 151 -178 333 -84 529 57 119 169 215 326 280 65 27 130 31 378 21 67 -3 81 0 129 26 67 37 113 97 142 183 45 138 108 229 207 299 99 71 160 92 267 93 79 0 97 -4 153 -30 110 -52 194 -156 228 -283 18 -68 18 -206 -1 -282 -27 -115 -18 -204 28 -254 32 -34 63 -43 108 -31 104 28 194 209 169 340 -13 69 -36 97 -95 117 -100 35 -176 142 -217 306 -18 71 -20 96 -13 187 15 191 12 239 -17 295 -65 125 -181 169 -280 106 -59 -38 -81 -70 -108 -161 -35 -116 -76 -188 -144 -255 -74 -73 -146 -110 -252 -132 -67 -14 -89 -14 -149 -3 -175 32 -236 22 -319 -50 -43 -38 -56 -61 -92 -162 -45 -122 -112 -214 -209 -283 -222 -159 -522 -130 -721 69 -122 122 -172 257 -159 431 11 161 6 274 -15 315 -37 71 -136 139 -203 140 -41 0 -133 48 -190 100 -135 121 -200 312 -162 480 36 159 30 228 -23 292 -52 61 -150 84 -235 54z"/>
 <path d="M2276 2938 c37 -38 55 -71 64 -113 8 -43 40 -47 40 -5 0 57 -45 118 -105 140 l-30 11 31 -33z"/>
 <path d="M2592 2778 l3 -193 24 -3 c21 -3 23 -1 18 20 -4 12 -7 96 -7 185 0 153 -1 163 -20 173 -20 11 -20 9 -18 -182z"/>
 <path d="M2860 2873 c5 -88 7 -98 25 -101 19 -3 20 2 17 85 -3 66 -8 91 -20 101 -9 6 -18 12 -21 12 -3 0 -4 -44 -1 -97z"/>
 <path d="M2080 2931 c-70 -37 -104 -164 -82 -305 16 -106 64 -156 154 -163 70 -6 115 19 146 77 12 24 22 55 22 67 0 20 -5 23 -44 23 -43 0 -44 -1 -53 -37 -10 -42 -42 -60 -86 -49 -35 8 -47 50 -47 167 0 113 9 146 45 155 44 11 72 -3 85 -41 11 -33 14 -35 56 -35 36 0 44 3 44 18 0 36 -45 105 -80 124 -45 23 -116 23 -160 -1z"/>
 <path d="M2470 2745 l0 -195 -55 0 -55 0 0 -40 0 -40 163 2 162 3 0 35 0 35 -57 3 -58 3 0 194 0 195 -50 0 -50 0 0 -195z"/>
 <path d="M2740 2705 l0 -235 130 0 130 0 0 40 0 40 -80 0 -80 0 0 60 0 60 70 0 70 0 0 40 0 40 -70 0 -70 0 0 95 0 95 -50 0 -50 0 0 -235z"/>
 <path d="M3128 2833 l-3 -68 -42 -3 c-43 -3 -43 -3 -43 -43 l0 -39 45 0 45 0 0 -66 0 -65 43 3 42 3 3 63 3 62 44 0 45 0 0 39 0 40 -46 3 -47 3 -1 65 -1 65 -42 3 -42 3 -3 -68z"/>
 <path d="M2123 2828 c-4 -7 -9 -56 -11 -108 -4 -86 -2 -98 18 -122 26 -34 57 -39 40 -8 -7 13 -10 66 -8 135 3 103 1 115 -14 115 -9 0 -20 -6 -25 -12z"/>
 <path d="M2337 2608 c-3 -29 -8 -64 -11 -78 -3 -14 -1 -11 5 7 7 20 20 34 35 37 28 7 33 46 8 70 -25 25 -31 19 -37 -36z"/>
 <path d="M2860 2615 c0 -30 3 -35 23 -35 20 0 23 4 19 35 -3 26 -9 35 -23 35 -15 0 -19 -7 -19 -35z"/>
 <path d="M3240 2599 c0 -43 3 -50 18 -47 13 2 18 15 20 51 3 42 1 47 -17 47 -18 0 -21 -6 -21 -51z"/>
 <path d="M3020 2531 c0 -53 12 -70 35 -51 21 17 19 64 -3 83 -28 25 -32 21 -32 -32z"/>
 <path d="M163 2540 c-70 -42 -101 -173 -68 -286 25 -87 50 -121 125 -169 82 -52 138 -116 191 -218 66 -126 80 -178 89 -325 7 -113 12 -140 34 -186 30 -61 93 -124 158 -157 197 -99 367 -326 368 -491 0 -24 9 -61 19 -83 36 -80 156 -164 257 -180 29 -4 58 0 100 14 121 43 197 21 290 -84 34 -39 80 -78 109 -93 44 -24 61 -27 150 -27 81 0 106 4 132 19 74 45 81 127 16 192 -91 91 -239 116 -362 60 -117 -52 -222 -23 -294 81 -61 88 -79 104 -176 150 -207 99 -332 225 -386 392 -26 79 -17 209 17 276 63 122 197 195 355 195 47 0 107 -8 156 -21 70 -19 85 -20 134 -9 45 10 65 22 108 63 59 58 75 98 75 188 0 72 -45 165 -100 209 -105 83 -258 80 -346 -7 -33 -34 -55 -79 -78 -165 -21 -73 -88 -173 -149 -218 -69 -53 -138 -75 -225 -74 -64 1 -83 6 -155 42 -45 22 -101 57 -124 77 -56 48 -124 153 -159 245 -26 70 -28 86 -30 242 -3 189 -15 246 -67 305 -32 36 -81 63 -114 63 -10 0 -32 -9 -50 -20z"/>
 </g>
<g id="layer102" fill="#fefefe" stroke="none">
 <path d="M0 2500 l0 -2500 2500 0 2500 0 0 2500 0 2500 -2500 0 -2500 0 0 -2500z m3142 2264 c89 -29 142 -73 189 -156 55 -95 172 -129 269 -78 115 61 277 -2 357 -138 20 -34 28 -65 35 -139 20 -222 148 -414 358 -539 92 -55 122 -89 156 -177 32 -82 67 -133 104 -152 38 -20 58 -14 103 30 39 38 63 43 106 21 73 -38 138 -219 117 -330 -9 -45 -51 -96 -80 -96 -60 0 -118 76 -170 221 -24 66 -69 109 -116 109 -29 0 -47 -9 -84 -41 -62 -55 -99 -62 -168 -36 -40 16 -76 21 -148 21 -88 0 -100 -2 -158 -32 -116 -60 -181 -144 -226 -293 -32 -104 -69 -158 -133 -196 -40 -23 -59 -28 -118 -28 -57 0 -79 5 -117 27 l-47 26 -3 -51 c-2 -40 -7 -53 -20 -55 -15 -3 -18 5 -18 52 0 43 3 56 15 56 21 0 19 8 -15 47 -16 18 -30 38 -30 43 0 6 -5 10 -11 10 -8 0 -10 -17 -7 -50 5 -47 4 -50 -18 -50 -23 0 -24 3 -24 66 0 61 1 65 20 59 22 -7 22 -7 10 55 -6 31 -3 74 8 140 13 78 13 108 4 175 -39 271 -287 485 -564 485 -76 0 -186 -29 -263 -69 -126 -65 -208 -169 -269 -342 -71 -200 -358 -246 -473 -75 -18 26 -38 66 -44 89 -25 95 21 216 108 279 70 51 112 62 197 52 39 -5 121 -8 181 -8 89 0 121 4 168 22 100 38 154 70 217 128 68 64 100 113 130 199 26 76 57 115 116 147 68 37 128 44 200 23 80 -22 142 -70 178 -135 32 -59 35 -86 21 -246 -9 -106 5 -166 63 -279 49 -95 164 -211 252 -253 138 -67 249 -78 379 -37 164 52 263 197 263 383 -1 93 -16 153 -65 246 -65 126 -153 208 -300 280 -124 60 -145 80 -221 201 -37 60 -93 97 -156 103 -43 4 -61 -1 -122 -31 -93 -45 -135 -53 -208 -37 -106 23 -186 92 -211 183 -10 37 -5 129 8 164 19 50 138 53 275 7z m-1537 -288 c56 -33 69 -67 63 -161 -7 -103 -35 -142 -136 -193 -81 -40 -69 -38 -273 -31 -112 4 -248 -61 -360 -171 -67 -66 -83 -90 -138 -202 -45 -92 -72 -135 -98 -157 -127 -105 -247 -76 -270 64 -3 20 3 61 16 104 17 55 32 82 73 127 60 65 97 84 166 84 128 0 263 53 378 148 80 66 145 152 194 257 41 89 80 129 138 144 20 5 46 12 57 15 46 12 147 -3 190 -28z m-300 -635 c48 -22 89 -67 105 -117 14 -42 9 -118 -15 -224 -38 -168 27 -359 162 -480 57 -52 149 -100 190 -100 67 -1 166 -69 203 -140 21 -41 26 -154 15 -315 -6 -78 -4 -114 9 -165 56 -222 227 -382 455 -427 145 -29 293 4 416 92 97 69 164 161 209 283 36 101 49 124 92 162 83 72 144 82 319 50 137 -25 290 27 401 135 68 67 109 139 144 255 27 91 49 123 108 161 99 63 215 19 280 -106 29 -56 32 -104 17 -295 -7 -91 -5 -116 13 -187 41 -164 117 -271 217 -306 59 -20 82 -48 95 -117 25 -131 -65 -312 -169 -340 -45 -12 -76 -3 -108 31 -46 50 -55 139 -28 254 19 76 19 214 1 282 -34 127 -118 231 -228 283 -56 26 -74 30 -153 30 -107 -1 -168 -22 -267 -93 -99 -70 -162 -161 -207 -299 -29 -86 -75 -146 -142 -183 -48 -26 -62 -29 -129 -26 -248 10 -313 6 -378 -21 -157 -65 -269 -161 -326 -280 -94 -196 -66 -378 84 -529 69 -69 134 -106 232 -132 103 -27 139 -53 178 -132 45 -89 85 -119 150 -112 76 9 98 24 105 71 13 86 -28 189 -105 266 -58 59 -99 81 -215 114 -54 16 -103 37 -124 54 -97 79 -109 227 -28 334 78 102 234 138 348 81 38 -20 63 -42 85 -74 44 -66 49 -114 23 -215 -41 -161 -14 -309 74 -396 122 -122 363 -130 536 -18 89 58 179 162 241 279 75 142 145 201 240 201 116 0 123 -143 15 -290 -50 -68 -115 -106 -195 -115 -248 -26 -560 -306 -560 -502 0 -99 43 -130 166 -119 69 6 75 5 72 -11 -5 -26 -91 -88 -201 -143 -135 -68 -174 -66 -116 6 70 87 76 129 26 179 -36 36 -69 47 -191 63 -95 12 -127 33 -141 90 -6 23 -23 54 -38 70 -24 24 -35 27 -90 27 -58 0 -71 -5 -158 -55 l-94 -55 -90 0 c-80 0 -95 3 -136 27 -81 48 -106 111 -82 210 35 148 -4 293 -109 404 -62 66 -139 111 -268 155 -150 52 -210 124 -210 254 0 28 5 66 11 85 14 47 14 183 0 245 -42 182 -219 376 -369 405 -102 19 -169 67 -211 151 -34 68 -40 143 -20 229 17 68 13 199 -6 266 -38 130 -120 247 -211 300 -23 14 -77 36 -120 50 -122 40 -218 23 -346 -62 -108 -72 -174 -166 -218 -313 -23 -75 -64 -139 -113 -175 -39 -29 -115 -29 -153 0 -70 52 -96 197 -55 304 37 95 104 153 173 149 140 -7 179 -1 255 36 133 66 234 180 298 337 35 88 66 133 120 174 72 55 167 69 240 35z m1023 -914 c33 -30 52 -70 52 -107 0 -42 -32 -38 -40 5 -9 42 -27 75 -64 113 l-31 33 30 -11 c17 -6 41 -21 53 -33z m302 -140 c0 -89 3 -173 7 -185 5 -21 3 -23 -18 -20 l-24 3 -3 193 c-2 191 -2 193 18 182 19 -10 20 -20 20 -173z m252 171 c12 -10 17 -35 20 -101 3 -83 2 -88 -17 -85 -18 3 -20 13 -25 101 -3 53 -2 97 1 97 3 0 12 -6 21 -12z m-642 -26 c35 -19 80 -88 80 -124 0 -15 -8 -18 -44 -18 -42 0 -45 2 -56 35 -13 38 -41 52 -85 41 -36 -9 -45 -42 -45 -155 0 -117 12 -159 47 -167 44 -11 76 7 86 49 9 36 10 37 53 37 39 0 44 -3 44 -23 0 -12 -10 -43 -22 -67 -31 -58 -76 -83 -146 -77 -90 7 -138 57 -154 163 -22 141 12 268 82 305 44 24 115 24 160 1z m330 -187 l0 -194 58 -3 57 -3 0 -35 0 -35 -162 -3 -163 -2 0 40 0 40 55 0 55 0 0 195 0 195 50 0 50 0 0 -195z m270 100 l0 -95 70 0 70 0 0 -40 0 -40 -70 0 -70 0 0 -60 0 -60 80 0 80 0 0 -40 0 -40 -130 0 -130 0 0 235 0 235 50 0 50 0 0 -95z m376 -15 l1 -65 47 -3 46 -3 0 -40 0 -39 -45 0 -44 0 -3 -62 -3 -63 -42 -3 -43 -3 0 65 0 66 -45 0 -45 0 0 39 c0 40 0 40 43 43 l42 3 3 68 3 68 42 -3 42 -3 1 -65z m-1054 -105 c-2 -69 1 -122 8 -135 17 -31 -14 -26 -40 8 -20 24 -22 36 -18 122 4 102 9 120 36 120 15 0 17 -12 14 -115z m212 -81 c25 -24 20 -63 -8 -70 -15 -3 -28 -17 -35 -37 -6 -18 -8 -21 -5 -7 3 14 8 49 11 78 6 55 12 61 37 36z m528 -29 c4 -31 1 -35 -19 -35 -20 0 -23 5 -23 35 0 28 4 35 19 35 14 0 20 -9 23 -35z m376 -12 c-2 -36 -7 -49 -20 -51 -15 -3 -18 4 -18 47 0 45 3 51 21 51 18 0 20 -5 17 -47z m-226 -40 c22 -19 24 -66 3 -83 -23 -19 -35 -2 -35 51 0 53 4 57 32 32z m-2789 -17 c18 -7 46 -29 64 -49 52 -59 64 -116 67 -305 2 -156 4 -172 30 -242 35 -92 103 -197 159 -245 23 -20 79 -55 124 -77 72 -36 91 -41 155 -42 87 -1 156 21 225 74 61 45 128 145 149 218 23 86 45 131 78 165 88 87 241 90 346 7 55 -44 100 -137 100 -209 0 -90 -16 -130 -75 -188 -43 -41 -63 -53 -108 -63 -49 -11 -64 -10 -134 9 -221 59 -426 -10 -511 -174 -34 -67 -43 -197 -17 -276 54 -167 179 -293 386 -392 97 -46 115 -62 176 -150 72 -104 177 -133 294 -81 123 56 271 31 362 -60 65 -65 58 -147 -16 -192 -26 -15 -51 -19 -132 -19 -89 0 -106 3 -150 27 -29 15 -75 54 -109 93 -93 105 -169 127 -290 84 -42 -14 -71 -18 -100 -14 -101 16 -221 100 -257 180 -10 22 -19 59 -19 83 -1 165 -171 392 -368 491 -65 33 -128 96 -158 157 -22 46 -27 73 -34 186 -9 147 -23 199 -89 325 -53 102 -109 166 -191 218 -75 48 -100 82 -125 169 -33 113 -2 244 68 286 38 24 57 25 100 6z"/>
 </g>

</svg>